# xmcd
#
# Track frame offsets:
#	150
#	18642
#	35499
#	52024
#	71525
#	87003
#	105343
#	119066
#	133309
#	147793
#	158045
#	173497
#	199307
#
# Disc length: 2676 seconds
#
# Revision: 1
# Processed by: cddbd v1.5.2PL0 Copyright (c) Steve Scherf et al.
# Submitted via: audiograbber 1.83.01
#
DISCID=b50a720d
DTITLE=Ivanildo - Sax de Ouro Vol. 8
DYEAR=1998
DGENRE=Blues
TTITLE0=Prefixo: Saxomaníaco/Siboney/Para vigo me voy
TTITLE1=Eterna melodia
TTITLE2=The shadow of your smile
TTITLE3=Danúbio azul/Valsa do Imperador/Bodas de prata/Fascination
TTITLE4=Samba de verão/Garota de Ipanema/Wave
TTITLE5=Alguém me disse/Only you
TTITLE6=Somewhere in time
TTITLE7=Petit fleur
TTITLE8=Theme from New York, New York
TTITLE9=Benzinho
TTITLE10=Royal Cinema
TTITLE11=Leva meu samba/Ai, que saudades da Amélia/Atire a primeira pedra
TTITLE12=Sufixo: Saxomaníaco
EXTD=
EXTT0=
EXTT1=
EXTT2=
EXTT3=
EXTT4=
EXTT5=
EXTT6=
EXTT7=
EXTT8=
EXTT9=
EXTT10=
EXTT11=
EXTT12=
PLAYORDER=
